<svg xmlns="http://www.w3.org/2000/svg" version="1.1" xmlns:xlink="http://www.w3.org/1999/xlink" xmlns:svgjs="http://svgjs.com/svgjs" width="100%" height="100%" viewBox="0 0 1000 600"><rect width="1000" height="600" x="0" y="0" fill="#272727"/><g><rect width="333.3333333333333" height="333.3333333333333" rx="13.333333333333334" ry="13.333333333333334" y="144.18512478888033" fill="#eff2f9" transform="matrix(1.024901913684042,0,0,1.024901913684042,0,-18.592590083704792)" x="121.96289062499999"/><path d="M286.89767139897606 237.1681006969739L307.758478113828 237.1681006969739L307.758478113828 385.8498446932434L288.21079800191376 385.8498446932434L288.21079800191376 274.98017810429496L238.78948767316578 385.8498446932434L225.03150212874985 385.8498446932434L175.40128529498904 274.77127159928216L175.40128529498904 385.8498446932434L155.82376139664444 385.8498446932434L155.82376139664444 237.1681006969739L176.89347461650922 237.1681006969739L231.89557300774263 360.064813217375L286.89767139897606 237.1681006969739ZM421.43346062723435 251.97061876645398L360.40291737705945 251.97061876645398L360.40291737705945 302.0484923966708L414.98720275826724 302.0484923966708L414.98720275826724 318.1641370690886L360.40291737705945 318.1641370690886L360.40291737705945 369.7342000208256L421.43346062723435 369.7342000208256L421.43346062723435 385.8498446932434L340.8552372651453 385.8498446932434L340.8552372651453 235.85497409403615L421.43346062723435 235.85497409403615L421.43346062723435 251.97061876645398Z " fill="#272727" transform="matrix(1.024901913684042,0,0,1.024901913684042,0,-18.592590083704792)"/><path d="M551.8254185389693 385.8507694061972Q546.2919362241046 385.8507694061972 542.4451303367654 382.03355433337595Q538.6279152639443 378.18674844603686 538.6279152639443 372.65326613117213L538.6279152639443 372.65326613117213Q538.6279152639443 367.1197838163073 542.4451303367654 363.2729779289682Q546.2919362241046 359.426172041629 551.8254185389693 359.426172041629L551.8254185389693 359.426172041629Q557.1517651522081 359.426172041629 560.8802077814753 363.2729779289682Q564.6086504107424 367.1197838163073 564.6086504107424 372.65326613117213L564.6086504107424 372.65326613117213Q564.6086504107424 378.18674844603686 560.8802077814753 382.03355433337595Q557.1517651522081 385.8507694061972 551.8254185389693 385.8507694061972L551.8254185389693 385.8507694061972ZM720.3451072189416 237.15692645328042L741.0290865670189 237.15692645328042L741.0290865670189 384.5783643819234L721.6471030577333 384.5783643819234L721.6471030577333 274.648488447578L672.6447142159362 384.5783643819234L659.0033487231414 384.5783643819234L609.7938241797184 274.4413527459521L609.7938241797184 384.5783643819234L590.3822498559147 384.5783643819234L590.3822498559147 237.15692645328042L611.273364905618 237.15692645328042L665.8092360622798 359.01190063837714L720.3451072189416 237.15692645328042ZM853.7404990660557 251.83397045420514L793.2272833767593 251.83397045420514L793.2272833767593 301.487357215398L847.348883130169 301.487357215398L847.348883130169 317.4663970551145L793.2272833767593 317.4663970551145L793.2272833767593 368.599324542207L853.7404990660557 368.599324542207L853.7404990660557 384.5783643819234L773.8452998674736 384.5783643819234L773.8452998674736 235.85493061448872L853.7404990660557 235.85493061448872L853.7404990660557 251.83397045420514Z " fill="#eff2f9" transform="matrix(1.024901913684042,0,0,1.024901913684042,0,-18.592590083704792)"/></g></svg>